#!OML:ASF I:\Random Stuff\random\construction\7_22_03\Session 2\subj1.ASF
:FULLY-SPECIFIED
:DEGREES
739
root 5.64239 17.7109 -7.61364 5.79934 -62.0718 0.968418
lowerback 2.31747 0.554899 0.268977
upperback -1.45508 0.793931 2.22313
thorax -2.82235 0.40745 2.09755
lowerneck -20.6087 -3.55741 -1.94606
upperneck 29.0211 -7.56672 7.94022
head 13.7155 -2.55028 2.09506
rclavicle 4.52235e-014 1.51076e-014
rhumerus -29.418 44.7224 -93.1939
rradius 102.452
rwrist -2.76228
rhand -24.3405 31.9264
rfingers 7.12502
rthumb 2.1485 1.95748
lclavicle 4.52235e-014 1.51076e-014
lhumerus -25.6356 -31.9745 97.0812
lradius 123.91
lwrist 22.6651
lhand -11.4855 61.8699
lfingers 7.12502
lthumb 14.5528 268.661
rfemur -5.79463 14.7715 19.1423
rtibia 11.1738
rfoot -5.92035 -28.7354
rtoes -11.1812
lfemur -11.2499 -11.8728 -15.6106
ltibia 18.1558
lfoot -13.3745 26.6845
ltoes -20.2575
740
root 5.63789 17.709 -7.6219 5.74887 -62.1988 0.92073
lowerback 2.36252 0.570677 0.28542
upperback -1.43847 0.816104 2.23041
thorax -2.83128 0.418205 2.09443
lowerneck -20.741 -3.74068 -2.05212
upperneck 29.0521 -7.81136 7.96548
head 13.7797 -2.66011 2.0772
rclavicle -5.43179e-014 -1.35174e-014
rhumerus -29.4117 44.6181 -93.1895
rradius 102.393
rwrist -2.74886
rhand -24.1481 32.0743
rfingers 7.12502
rthumb 2.33433 2.10728
lclavicle -5.43179e-014 -1.35174e-014
lhumerus -25.7827 -31.9986 97.1478
lradius 123.836
lwrist 20.9994
lhand -12.3818 62.4311
lfingers 7.12502
lthumb 13.6891 268.039
rfemur -5.7599 14.7558 19.2218
rtibia 11.2636
rfoot -6.01833 -28.5844
rtoes -10.7968
lfemur -11.0991 -11.8107 -15.5787
ltibia 18.1224
lfoot -13.4533 26.7064
ltoes -20.1536
741
root 5.63512 17.7091 -7.62879 5.6784 -62.3027 0.949081
lowerback 2.39036 0.57477 0.383244
upperback -1.45819 0.824414 2.15385
thorax -2.8649 0.42002 1.95982
lowerneck -20.8408 -3.88945 -2.10021
upperneck 29.0935 -8.0433 8.02927
head 13.8412 -2.75391 2.06722
rclavicle 9.25343e-014 -7.95139e-015
rhumerus -29.487 44.4706 -93.3212
rradius 102.349
rwrist -2.6977
rhand -24.4382 32.2234
rfingers 7.12502
rthumb 2.05416 2.25359
lclavicle 9.25343e-014 -7.95139e-015
lhumerus -25.9004 -32.0323 97.1209
lradius 123.744
lwrist 19.3029
lhand -13.1692 63.2134
lfingers 7.12502
lthumb 12.9301 267.207
rfemur -5.80826 14.5946 19.2406
rtibia 11.4007
rfoot -6.13816 -28.3291
rtoes -11.1127
lfemur -10.9973 -11.6025 -15.5894
ltibia 18.0546
lfoot -13.2295 26.6176
ltoes -21.0667
742
root 5.63248 17.7093 -7.63467 5.55858 -62.4172 1.07911
lowerback 2.33118 0.552543 0.26234
upperback -1.46166 0.790578 2.20773
thorax -2.83659 0.405852 2.08545
lowerneck -21.0102 -3.94389 -2.19198
upperneck 29.2205 -8.06758 7.92297
head 13.931 -2.78057 2.03593
rclavicle -6.12257e-014 -1.74931e-014
rhumerus -29.5042 44.591 -93.2549
rradius 102.272
rwrist -2.58926
rhand -24.9779 32.3526
rfingers 7.12502
rthumb 1.53295 2.37839
lclavicle -6.12257e-014 -1.74931e-014
lhumerus -25.8853 -31.7978 97.1447
lradius 123.679
lwrist 17.5957
lhand -13.3027 64.4247
lfingers 7.12502
lthumb 12.8013 265.988
rfemur -5.91143 14.3237 19.187
rtibia 11.5445
rfoot -6.28384 -27.9623
rtoes -11.6019
lfemur -10.9264 -11.4932 -15.6511
ltibia 17.9689
lfoot -13.0067 26.6938
ltoes -21.809
743
root 5.62908 17.7079 -7.64177 5.41496 -62.5331 1.21691
lowerback 2.29119 0.535336 0.180754
upperback -1.47089 0.76447 2.21237
thorax -2.82383 0.394483 2.13763
lowerneck -21.2013 -3.99416 -2.21728
upperneck 29.3924 -8.11408 7.80828
head 14.0437 -2.80934 1.98584
rclavicle 2.71341e-014 8.74653e-015
rhumerus -29.5287 44.6473 -93.2802
rradius 102.13
rwrist -2.11978
rhand -25.3069 32.3499
rfingers 7.12502
rthumb 1.21515 2.37366
lclavicle 2.71341e-014 8.74653e-015
lhumerus -25.888 -31.5722 97.0839
lradius 123.62
lwrist 16.0678
lhand -13.2075 65.4661
lfingers 7.12502
lthumb 12.8932 264.952
rfemur -5.981 14.2966 19.1361
rtibia 11.6732
rfoot -6.43833 -27.8216
rtoes -11.6744
lfemur -10.8208 -11.7066 -15.7009
ltibia 17.8799
lfoot -13.1899 26.9879
ltoes -21.2239
744
root 5.62642 17.7072 -7.64932 5.31531 -62.617 1.30168
lowerback 2.27283 0.511526 0.163332
upperback -1.50317 0.73212 2.19945
thorax -2.84561 0.378784 2.13573
lowerneck -21.3409 -4.10214 -2.30262
upperneck 29.5467 -8.24752 7.76351
head 14.1513 -2.87536 1.95761
rclavicle -1.42131e-014 -1.90833e-014
rhumerus -29.6037 44.6145 -93.3652
rradius 101.978
rwrist -1.56093
rhand -25.4666 32.2899
rfingers 7.12502
rthumb 1.06096 2.3128
lclavicle -1.42131e-014 -1.90833e-014
lhumerus -25.9178 -31.3857 97.0838
lradius 123.561
lwrist 14.7367
lhand -13.5334 66.2843
lfingers 7.12502
lthumb 12.579 264.114
rfemur -6.02871 14.3652 19.1191
rtibia 11.7787
rfoot -6.49035 -27.8306
rtoes -11.639
lfemur -10.7247 -12.0351 -15.7061
ltibia 17.8057
lfoot -13.6744 27.2526
ltoes -19.381
745
root 5.62334 17.7068 -7.6554 5.37855 -62.676 1.2167
lowerback 2.22478 0.454929 0.205973
upperback -1.52599 0.658214 2.24295
thorax -2.83942 0.341305 2.16044
lowerneck -21.4931 -4.17828 -2.41753
upperneck 29.6959 -8.32042 7.71747
head 14.2569 -2.91844 1.94492
rclavicle -4.63168e-014 -9.54166e-015
rhumerus -29.6411 44.722 -93.4059
rradius 101.802
rwrist -1.18608
rhand -25.9827 32.0453
rfingers 7.12502
rthumb 0.562438 2.06634
lclavicle -4.63168e-014 -9.54166e-015
lhumerus -25.8835 -31.1379 97.0998
lradius 123.549
lwrist 13.2528
lhand -13.9459 66.8941
lfingers 7.12502
lthumb 12.1813 263.481
rfemur -6.06213 14.3482 19.1855
rtibia 11.8406
rfoot -6.37014 -27.8185
rtoes -11.4207
lfemur -10.669 -12.1513 -15.6358
ltibia 17.7635
lfoot -13.864 27.396
ltoes -18.4026
746
root 5.61864 17.7047 -7.6626 5.45122 -62.741 1.07506
lowerback 2.21553 0.410299 0.339512
upperback -1.53967 0.602552 2.21569
thorax -2.84448 0.310626 2.05992
lowerneck -21.6128 -4.1511 -2.3617
upperneck 29.7716 -8.2948 7.67108
head 14.3091 -2.90239 1.92094
rclavicle 3.47873e-016 -1.59028e-015
rhumerus -29.6789 44.7218 -93.5279
rradius 101.597
rwrist -0.836451
rhand -26.4031 31.5994
rfingers 7.12502
rthumb 0.156381 1.61971
lclavicle 3.47873e-016 -1.59028e-015
lhumerus -25.8986 -31.0614 96.9706
lradius 123.564
lwrist 11.4489
lhand -14.4712 67.2644
lfingers 7.12502
lthumb 11.6747 263.081
rfemur -6.01013 14.3551 19.298
rtibia 11.8373
rfoot -6.29191 -27.7674
rtoes -10.8526
lfemur -10.5834 -12.2198 -15.5499
ltibia 17.767
lfoot -13.8884 27.5303
ltoes -18.3759
747
root 5.6131 17.702 -7.6718 5.3478 -62.8295 1.06872
lowerback 2.2202 0.400115 0.248855
upperback -1.52197 0.586579 2.2655
thorax -2.82989 0.304741 2.16299
lowerneck -21.7042 -4.05346 -2.2992
upperneck 29.7275 -8.09454 7.48448
head 14.2803 -2.83183 1.87134
rclavicle -5.65045e-014 0
rhumerus -29.6525 44.6444 -93.4063
rradius 101.392
rwrist -0.716127
rhand -26.0709 31.5047
rfingers 7.12502
rthumb 0.477231 1.52549
lclavicle -5.65045e-014 0
lhumerus -25.978 -31.0677 96.9447
lradius 123.63
lwrist 9.59694
lhand -15.0646 67.81
lfingers 7.12502
lthumb 11.1025 262.504
rfemur -5.85795 14.4485 19.3669
rtibia 11.7832
rfoot -6.3795 -27.7278
rtoes -10.471
lfemur -10.4434 -12.4086 -15.5358
ltibia 17.8084
lfoot -14.0813 27.7457
ltoes -18.3079
748
root 5.60786 17.6993 -7.67987 5.27154 -62.9215 1.05214
lowerback 2.24855 0.392936 0.266049
upperback -1.54249 0.578355 2.26533
thorax -2.86656 0.300467 2.15342
lowerneck -21.763 -4.01612 -2.28035
upperneck 29.6938 -7.98677 7.34251
head 14.2608 -2.80118 1.83006
rclavicle 7.7526e-015 -1.74931e-014
rhumerus -29.7158 44.5085 -93.4301
rradius 101.176
rwrist -0.882505
rhand -25.8105 31.7695
rfingers 7.12502
rthumb 0.728784 1.79096
lclavicle 7.7526e-015 -1.74931e-014
lhumerus -26.1061 -31.1228 96.8551
lradius 123.732
lwrist 7.89409
lhand -15.0604 68.2259
lfingers 7.12502
lthumb 11.1065 262.088
rfemur -5.73777 14.4887 19.4324
rtibia 11.7555
rfoot -6.44305 -27.6433
rtoes -10.452
lfemur -10.3169 -12.5848 -15.5204
ltibia 17.8325
lfoot -14.214 27.9998
ltoes -18.3083
749
root 5.60361 17.6974 -7.68769 5.35741 -62.9931 0.93328
lowerback 2.20522 0.399321 0.325
upperback -1.57954 0.588869 2.28073
thorax -2.88027 0.304674 2.1359
lowerneck -21.6771 -4.11335 -2.40464
upperneck 29.5965 -8.08181 7.3726
head 14.2129 -2.8568 1.84484
rclavicle -2.16178e-014 4.77083e-015
rhumerus -29.8794 44.3372 -93.5019
rradius 101.008
rwrist -0.955306
rhand -26.0032 31.9399
rfingers 7.12502
rthumb 0.542648 1.96083
lclavicle -2.16178e-014 4.77083e-015
lhumerus -26.1905 -31.2696 96.8395
lradius 123.752
lwrist 6.15875
lhand -14.5754 68.1622
lfingers 7.12502
lthumb 11.5743 262.177
rfemur -5.74741 14.4774 19.5245
rtibia 11.7908
rfoot -6.46151 -27.5349
rtoes -10.6828
lfemur -10.2579 -12.6275 -15.4415
ltibia 17.8078
lfoot -14.2064 28.1215
ltoes -18.3601
750
root 5.5999 17.6979 -7.69693 5.32088 -63.0655 0.962599
lowerback 2.13548 0.406427 0.263935
upperback -1.59445 0.595561 2.29114
thorax -2.85735 0.309287 2.181
lowerneck -21.3784 -4.2825 -2.6269
upperneck 29.2565 -8.29448 7.61631
head 14.0398 -2.95678 1.93936
rclavicle -5.13858e-014 -3.10104e-014
rhumerus -30.0353 44.2308 -93.5107
rradius 100.902
rwrist -0.801378
rhand -26.0307 31.8762
rfingers 7.12502
rthumb 0.516064 1.89704
lclavicle -5.13858e-014 -3.10104e-014
lhumerus -26.2806 -31.5034 96.9048
lradius 123.742
lwrist 4.40598
lhand -14.1718 68.1604
lfingers 7.12502
lthumb 11.9635 262.201
rfemur -5.79601 14.4038 19.5383
rtibia 11.8562
rfoot -6.55121 -27.4062
rtoes -10.9453
lfemur -10.2005 -12.5735 -15.4308
ltibia 17.7532
lfoot -14.1715 28.1346
ltoes -18.5619
751
root 5.59562 17.6985 -7.70657 5.13139 -63.1687 1.10262
lowerback 2.11692 0.400561 0.15727
upperback -1.57874 0.583688 2.2846
thorax -2.8313 0.305403 2.23485
lowerneck -21.0625 -4.43956 -2.85439
upperneck 28.854 -8.50121 7.92172
head 13.843 -3.04895 2.05962
rclavicle -3.68249e-014 -1.66979e-014
rhumerus -30.0993 44.2127 -93.4912
rradius 100.799
rwrist -0.557882
rhand -25.6605 31.5349
rfingers 7.12502
rthumb 0.87368 1.55699
lclavicle -3.68249e-014 -1.66979e-014
lhumerus -26.3761 -31.7273 96.9807
lradius 123.711
lwrist 2.813
lhand -14.2621 68.053
lfingers 7.12502
lthumb 11.8764 262.304
rfemur -5.80317 14.2117 19.5093
rtibia 11.9478
rfoot -6.63256 -27.1772
rtoes -10.8151
lfemur -10.0688 -12.53 -15.4872
ltibia 17.6784
lfoot -14.136 28.1944
ltoes -18.7637
752
root 5.59254 17.698 -7.71575 5.08015 -63.2509 1.11487
lowerback 2.08303 0.366025 0.0806415
upperback -1.56314 0.535211 2.33919
thorax -2.79564 0.2829 2.33665
lowerneck -21.0585 -4.45498 -2.95799
upperneck 28.6979 -8.46476 7.93071
head 13.7776 -3.04603 2.08537
rclavicle 1.17283e-014 5.56597e-015
rhumerus -30.1386 44.2975 -93.4293
rradius 100.657
rwrist -0.315536
rhand -25.471 31.185
rfingers 7.12502
rthumb 1.0567 1.20784
lclavicle 1.17283e-014 5.56597e-015
lhumerus -26.3678 -31.7981 97.0752
lradius 123.705
lwrist 1.28311
lhand -14.5986 67.5409
lfingers 7.12502
lthumb 11.5519 262.797
rfemur -5.84829 14.0178 19.5382
rtibia 12.0625
rfoot -6.73509 -26.9152
rtoes -10.5407
lfemur -9.97353 -12.5144 -15.4656
ltibia 17.5925
lfoot -14.1227 28.2446
ltoes -18.5038
